# Blender 4.2.1 LTS
# www.blender.org
mtllib Estante.mtl
o Shelves1
v 0.000000 0.000000 0.000000
v 0.000000 0.000000 0.272192
v 0.000000 1.944227 0.272191
v 0.000000 1.944227 -0.000000
v 0.029163 0.000000 0.000000
v 0.029163 0.000000 0.272192
v 0.029163 1.944227 0.272191
v 0.029163 1.944227 -0.000000
v 0.942950 0.000000 0.000000
v 0.942950 0.000000 0.272192
v 0.942950 1.944227 0.272191
v 0.942950 1.944227 -0.000000
v 0.972114 0.000000 0.000000
v 0.972114 0.000000 0.272192
v 0.972114 1.944227 0.272191
v 0.972114 1.944227 -0.000000
v 0.029163 0.068048 -0.000000
v 0.029163 0.068048 0.272192
v 0.029163 0.038885 0.272192
v 0.029163 0.038885 -0.000000
v 0.942950 0.068048 -0.000000
v 0.942950 0.068048 0.272192
v 0.942950 0.038885 0.272192
v 0.942950 0.038885 -0.000000
v 0.029163 0.431618 -0.000000
v 0.029163 0.431618 0.272192
v 0.029163 0.402455 0.272192
v 0.029163 0.402455 -0.000000
v 0.942950 0.431618 -0.000000
v 0.942950 0.431618 0.272192
v 0.942950 0.402455 0.272192
v 0.942950 0.402455 -0.000000
v 0.029163 0.795189 -0.000000
v 0.029163 0.795189 0.272192
v 0.029163 0.766025 0.272192
v 0.029163 0.766025 -0.000000
v 0.942950 0.795189 -0.000000
v 0.942950 0.795189 0.272192
v 0.942950 0.766025 0.272192
v 0.942950 0.766025 -0.000000
v 0.029163 1.158759 -0.000000
v 0.029163 1.158759 0.272192
v 0.029163 1.129596 0.272192
v 0.029163 1.129596 -0.000000
v 0.942950 1.158759 -0.000000
v 0.942950 1.158759 0.272192
v 0.942950 1.129596 0.272192
v 0.942950 1.129596 -0.000000
v 0.029163 1.522330 -0.000000
v 0.029163 1.522330 0.272192
v 0.029163 1.493166 0.272192
v 0.029163 1.493166 -0.000000
v 0.942950 1.522330 -0.000000
v 0.942950 1.522330 0.272192
v 0.942950 1.493166 0.272192
v 0.942950 1.493166 -0.000000
v 0.029163 1.885900 -0.000000
v 0.029163 1.885900 0.272191
v 0.029163 1.856737 0.272191
v 0.029163 1.856737 -0.000000
v 0.942950 1.885900 -0.000000
v 0.942950 1.885900 0.272191
v 0.942950 1.856737 0.272191
v 0.942950 1.856737 -0.000000
vn -1.0000 -0.0000 -0.0000
vn 1.0000 -0.0000 -0.0000
vn -0.0000 -0.0000 -1.0000
vn -0.0000 -1.0000 -0.0000
vn -0.0000 1.0000 -0.0000
vn -0.0000 -0.0000 1.0000
vt 0.191306 0.705709
vt 0.096365 0.705709
vt 0.096365 0.003511
vt 0.191306 0.003511
vt 0.000475 0.705709
vt 0.000475 0.003511
vt 0.095416 0.003511
vt 0.095416 0.705709
vt 0.969229 0.705709
vt 0.969229 0.003511
vt 0.979401 0.003511
vt 0.979401 0.705709
vt 0.661009 0.667158
vt 0.671182 0.667158
vt 0.671182 0.765466
vt 0.661009 0.765466
vt 0.547996 0.765466
vt 0.547996 0.667158
vt 0.558169 0.667158
vt 0.558169 0.765466
vt 0.999949 0.705709
vt 0.989777 0.705709
vt 0.989777 0.003511
vt 0.999949 0.003511
vt 0.287197 0.705709
vt 0.192256 0.705709
vt 0.192256 0.003511
vt 0.287197 0.003511
vt 0.383087 0.003511
vt 0.383087 0.705709
vt 0.288146 0.705709
vt 0.288146 0.003511
vt 0.958955 0.705709
vt 0.958955 0.003511
vt 0.969127 0.003511
vt 0.969127 0.705709
vt 0.609640 0.667158
vt 0.619812 0.667158
vt 0.619812 0.765466
vt 0.609640 0.765466
vt 0.599366 0.765466
vt 0.599366 0.667158
vt 0.609538 0.667158
vt 0.609538 0.765466
vt 0.989675 0.705709
vt 0.979503 0.705709
vt 0.979503 0.003511
vt 0.989675 0.003511
vt 0.671283 0.667158
vt 0.681456 0.667158
vt 0.681456 0.765466
vt 0.671283 0.765466
vt 0.650735 0.765466
vt 0.650735 0.667158
vt 0.660908 0.667158
vt 0.660908 0.765466
vt 0.506799 0.668317
vt 0.506799 0.998350
vt 0.496626 0.998350
vt 0.496626 0.668317
vt 0.574868 0.331683
vt 0.479927 0.331683
vt 0.479927 0.001650
vt 0.574867 0.001650
vt 0.863488 0.331683
vt 0.863488 0.001650
vt 0.958429 0.001650
vt 0.958429 0.331683
vt 0.414333 0.998350
vt 0.404161 0.998350
vt 0.404161 0.668317
vt 0.414333 0.668317
vt 0.537722 0.667158
vt 0.547895 0.667158
vt 0.547895 0.765466
vt 0.537722 0.765466
vt 0.558270 0.765466
vt 0.558270 0.667158
vt 0.568443 0.667158
vt 0.568443 0.765466
vt 0.414435 0.998350
vt 0.414435 0.668317
vt 0.424607 0.668317
vt 0.424607 0.998350
vt 0.766648 0.665016
vt 0.671707 0.665017
vt 0.671707 0.334983
vt 0.766648 0.334983
vt 0.767598 0.331683
vt 0.767598 0.001650
vt 0.862539 0.001650
vt 0.862539 0.331683
vt 0.434881 0.998350
vt 0.424709 0.998350
vt 0.424709 0.668317
vt 0.434881 0.668317
vt 0.527448 0.667158
vt 0.537621 0.667158
vt 0.537621 0.765466
vt 0.527448 0.765466
vt 0.517174 0.765466
vt 0.517174 0.667158
vt 0.527347 0.667158
vt 0.527347 0.765466
vt 0.465703 0.668317
vt 0.465703 0.998350
vt 0.455531 0.998350
vt 0.455531 0.668317
vt 0.478977 0.331683
vt 0.384036 0.331683
vt 0.384036 0.001650
vt 0.478977 0.001650
vt 0.384036 0.665016
vt 0.384036 0.334983
vt 0.478977 0.334983
vt 0.478977 0.665016
vt 0.393785 0.998350
vt 0.383613 0.998350
vt 0.383612 0.668317
vt 0.393785 0.668317
vt 0.506900 0.667158
vt 0.517073 0.667158
vt 0.517073 0.765466
vt 0.506900 0.765466
vt 0.630188 0.765466
vt 0.630188 0.667158
vt 0.640360 0.667158
vt 0.640360 0.765466
vt 0.434983 0.998350
vt 0.434983 0.668317
vt 0.445155 0.668317
vt 0.445155 0.998350
vt 0.766648 0.331683
vt 0.671707 0.331683
vt 0.671707 0.001650
vt 0.766648 0.001650
vt 0.479927 0.665016
vt 0.479927 0.334983
vt 0.574867 0.334983
vt 0.574868 0.665016
vt 0.404059 0.998350
vt 0.393887 0.998350
vt 0.393887 0.668317
vt 0.404059 0.668317
vt 0.578818 0.667158
vt 0.588990 0.667158
vt 0.588990 0.765466
vt 0.578818 0.765466
vt 0.589092 0.765466
vt 0.589092 0.667158
vt 0.599264 0.667158
vt 0.599264 0.765466
vt 0.475977 0.668317
vt 0.475977 0.998350
vt 0.465805 0.998350
vt 0.465805 0.668317
vt 0.670758 0.331683
vt 0.575817 0.331683
vt 0.575817 0.001650
vt 0.670758 0.001650
vt 0.863488 0.665016
vt 0.863488 0.334983
vt 0.958429 0.334983
vt 0.958429 0.665016
vt 0.455429 0.998350
vt 0.445257 0.998350
vt 0.445257 0.668317
vt 0.455429 0.668317
vt 0.640462 0.667158
vt 0.650634 0.667158
vt 0.650634 0.765466
vt 0.640462 0.765466
vt 0.619914 0.765466
vt 0.619914 0.667158
vt 0.630086 0.667158
vt 0.630086 0.765466
vt 0.496525 0.668317
vt 0.496525 0.998350
vt 0.486353 0.998350
vt 0.486353 0.668317
vt 0.670758 0.665016
vt 0.575817 0.665017
vt 0.575817 0.334983
vt 0.670758 0.334983
vt 0.767598 0.665016
vt 0.767598 0.334983
vt 0.862539 0.334983
vt 0.862539 0.665016
vt 0.486251 0.998350
vt 0.476079 0.998350
vt 0.476079 0.668317
vt 0.486251 0.668317
s 0
usemtl Shelves_material
f 1/1/1 2/2/1 3/3/1 4/4/1
f 5/5/2 8/6/2 7/7/2 6/8/2
f 1/9/3 4/10/3 8/11/3 5/12/3
f 1/13/4 5/14/4 6/15/4 2/16/4
f 4/17/5 3/18/5 7/19/5 8/20/5
f 2/21/6 6/22/6 7/23/6 3/24/6
f 9/25/1 10/26/1 11/27/1 12/28/1
f 13/29/2 16/30/2 15/31/2 14/32/2
f 9/33/3 12/34/3 16/35/3 13/36/3
f 9/37/4 13/38/4 14/39/4 10/40/4
f 12/41/5 11/42/5 15/43/5 16/44/5
f 10/45/6 14/46/6 15/47/6 11/48/6
f 17/49/1 20/50/1 19/51/1 18/52/1
f 21/53/2 22/54/2 23/55/2 24/56/2
f 17/57/3 21/58/3 24/59/3 20/60/3
f 17/61/5 18/62/5 22/63/5 21/64/5
f 20/65/4 24/66/4 23/67/4 19/68/4
f 18/69/6 19/70/6 23/71/6 22/72/6
f 25/73/1 28/74/1 27/75/1 26/76/1
f 29/77/2 30/78/2 31/79/2 32/80/2
f 25/81/3 29/82/3 32/83/3 28/84/3
f 25/85/5 26/86/5 30/87/5 29/88/5
f 28/89/4 32/90/4 31/91/4 27/92/4
f 26/93/6 27/94/6 31/95/6 30/96/6
f 33/97/1 36/98/1 35/99/1 34/100/1
f 37/101/2 38/102/2 39/103/2 40/104/2
f 33/105/3 37/106/3 40/107/3 36/108/3
f 33/109/5 34/110/5 38/111/5 37/112/5
f 36/113/4 40/114/4 39/115/4 35/116/4
f 34/117/6 35/118/6 39/119/6 38/120/6
f 41/121/1 44/122/1 43/123/1 42/124/1
f 45/125/2 46/126/2 47/127/2 48/128/2
f 41/129/3 45/130/3 48/131/3 44/132/3
f 41/133/5 42/134/5 46/135/5 45/136/5
f 44/137/4 48/138/4 47/139/4 43/140/4
f 42/141/6 43/142/6 47/143/6 46/144/6
f 49/145/1 52/146/1 51/147/1 50/148/1
f 53/149/2 54/150/2 55/151/2 56/152/2
f 49/153/3 53/154/3 56/155/3 52/156/3
f 49/157/5 50/158/5 54/159/5 53/160/5
f 52/161/4 56/162/4 55/163/4 51/164/4
f 50/165/6 51/166/6 55/167/6 54/168/6
f 57/169/1 60/170/1 59/171/1 58/172/1
f 61/173/2 62/174/2 63/175/2 64/176/2
f 57/177/3 61/178/3 64/179/3 60/180/3
f 57/181/5 58/182/5 62/183/5 61/184/5
f 60/185/4 64/186/4 63/187/4 59/188/4
f 58/189/6 59/190/6 63/191/6 62/192/6
